<?xml version="1.0" standalone="no"?>
<!DOCTYPE svg PUBLIC "-//W3C//DTD SVG 20010904//EN"
 "http://www.w3.org/TR/2001/REC-SVG-20010904/DTD/svg10.dtd">
<svg version="1.0" xmlns="http://www.w3.org/2000/svg"
 width="700.000000pt" height="700.000000pt" viewBox="0 0 700.000000 700.000000"
 preserveAspectRatio="xMidYMid meet">
<metadata>
Created by potrace 1.11, written by Peter Selinger 2001-2013
</metadata>
<g transform="translate(0.000000,700.000000) scale(0.100000,-0.100000)"
fill="#000000" stroke="none">
<path d="M3270 6994 c-633 -57 -1119 -215 -1621 -526 -221 -136 -388 -268
-592 -468 -582 -568 -927 -1268 -1034 -2095 -25 -196 -25 -614 0 -810 93 -720
369 -1349 828 -1880 84 -98 299 -311 394 -392 453 -382 1019 -650 1605 -762
229 -43 374 -55 650 -55 276 0 421 12 650 55 586 112 1152 380 1605 762 95 81
310 294 394 392 459 531 735 1160 828 1880 25 196 25 614 0 810 -93 720 -369
1349 -828 1880 -84 98 -299 311 -394 392 -509 430 -1132 703 -1810 794 -144
19 -559 33 -675 23z m595 -629 c320 -42 596 -124 880 -259 743 -355 1302
-1015 1530 -1807 81 -279 109 -487 109 -799 0 -312 -28 -520 -109 -799 -274
-954 -1022 -1702 -1976 -1976 -279 -81 -487 -109 -799 -109 -312 0 -520 28
-799 109 -954 274 -1702 1022 -1976 1976 -81 279 -109 487 -109 799 0 460 85
839 278 1245 441 923 1326 1536 2361 1634 137 13 465 6 610 -14z"/>
<path d="M3384 6130 c-60 -24 -135 -87 -170 -142 -55 -87 -54 -61 -55 -1248
l0 -1095 -700 -560 c-746 -596 -751 -602 -785 -715 -44 -149 35 -317 185 -392
66 -33 215 -33 281 0 25 12 381 290 790 616 857 684 815 649 851 699 61 84 59
31 59 1335 0 763 -4 1208 -10 1243 -21 111 -85 196 -184 246 -71 36 -190 42
-262 13z"/>
</g>
</svg>
